FILE "Captain Tsubasa (1994)(Tecmo)(JP).img" BINARY
  TRACK 01 MODE1/2352
    INDEX 01 00:00:00
  TRACK 02 AUDIO
    PREGAP 00:02:00
    INDEX 01 16:29:22
  TRACK 03 AUDIO
    INDEX 00 18:11:01
    INDEX 01 18:13:00
